<svg width="556" height="479" fill="none" xmlns="http://www.w3.org/2000/svg"><g clip-path="url(#clip0)"><g opacity=".02" stroke="#000" stroke-miterlimit="10"><path d="M36.71 13.4l44.42 31.45V76l36.43 58 53.51-77.51 68.3 18.82M117.56 134l52.32 15 32.77 14.74" stroke-width="2"/><path d="M81.13 76l-45.08-4.89 7.73 145.12-43.77-.33" stroke-width="2"/><path d="M43.78 216.23l39.39-31.88 29.16 34.92 36.81-30.71 38.99 50.31-2.93 62.07M253.13 265.95L223.1 215.9l53.31 13.91M143.09 12.24l27.99 44.25M41.02 306l-.45 36.04M182.57 403.33l53.86-26.4 2.03-69.53 32.05-17.35M323.64 314.46l8.65 22.53 8.84 41.43 42.12 28.06M300.01 398.75l41.11-20.33M360.28 290.93l45.44-6.1 27.62-27.45-3.93 64.81-27.44 30.48" stroke-width="2"/><path d="M48.82 104.01l-12.77-32.9-7.02 46.47M143.09 12.24l-46.63 5.41-18.23-9.74M202.65 163.74V81.68M83.17 184.35l27.63-20.61M20.58 160.89l23.2 55.34M188.13 238.87l-24.96-5.04 8.72 17.41-30.15 16.11 43.46 33.59M122.53 288.71l19.21-21.36M227.38 266.73l-16.25 16.93 27.33 23.74M236.43 376.93l-27.8-34.89-38.75-20.32-28.88.47-5.37 38.96M207.69 187.33l15.41 28.57M276.41 229.81l25.25 5.05 55.98-.79v-49.69l18.13 19.45M351.79 167.97l5.85 16.41M332.29 336.99l-37.83 36.38M326.11 425.68l15.01-47.26M405.72 284.83l-29.69 21.91-10.71 28.41M443.79 352.67l-14.38-30.48 49.16-7.73M451.72 228.78l-18.38 28.6" stroke-width="1.5"/><path d="M67.78 16.94l10.45-9.03M171.08 56.49l15.75-27.18M239.37 75.31l10.38-22.74M202.65 163.74l28.22-43.16M135.63 361.15l8.13 10.2M141 322.19l-30.33-9.46M147.13 298.17l-5.39-30.82-22.77-2.02M182.57 403.33l-30.34-13.66M270.51 290.05l16.5-26.62M307.71 211.54l-6.05 23.32 8.07 15.06M375.13 249.66l-17.49-15.59 24.81-10.45M375.78 203.83l28.21 2.95M383.26 406.48l10.23-22.66M11.7 294.25L41.02 306l14.77 20.77M44.58 284.18L41.02 306"/></g><g opacity=".04" fill="#000"><path d="M44.29 14.88a7.72 7.72 0 10-15.162-2.914A7.72 7.72 0 0044.29 14.88zM81.12 52.57a7.72 7.72 0 100-15.44 7.72 7.72 0 000 15.44zM87.886 79.725a7.72 7.72 0 10-13.525-7.448 7.72 7.72 0 0013.525 7.448zM51.36 217.71a7.72 7.72 0 10-9.06 6.1 7.727 7.727 0 009.06-6.1zM83.17 192.07a7.72 7.72 0 100-15.44 7.72 7.72 0 100 15.44zM120.037 219.846a7.72 7.72 0 10-15.397-1.131 7.72 7.72 0 0015.397 1.131zM36.05 78.83a7.72 7.72 0 100-15.44 7.72 7.72 0 000 15.44zM125.15 135.48a7.729 7.729 0 00-14.738-4.42 7.735 7.735 0 001.71 8.421 7.738 7.738 0 003.968 2.099 7.73 7.73 0 009.06-6.1zM178.66 58a7.728 7.728 0 00-7.611-9.218 7.727 7.727 0 00-7.127 4.798 7.733 7.733 0 001.71 8.42 7.73 7.73 0 0013.028-4zM150.67 13.72a7.724 7.724 0 00-3.312-7.911 7.723 7.723 0 00-11.408 3.505 7.721 7.721 0 0011.454 9.334 7.71 7.71 0 003.266-4.928zM83.18 8.87a5 5 0 10-9.837-1.801 5 5 0 009.837 1.8zM101.136 19.488a5.04 5.04 0 10-9.382-3.69 5.04 5.04 0 009.382 3.69zM53.77 105a5.001 5.001 0 10-9.838-1.802A5.001 5.001 0 0053.77 105zM69.76 17.32a2 2 0 10-3.935-.718 2 2 0 003.935.718zM188.81 29.7a1.996 1.996 0 00-1.983-2.359 2.003 2.003 0 00-1.834 1.238 1.998 1.998 0 002.969 2.42 2.013 2.013 0 00.848-1.3zM251.74 53a1.997 1.997 0 00-.865-2.039A2.001 2.001 0 10251.74 53zM232.86 121a1.996 1.996 0 00-.865-2.039 1.996 1.996 0 00-2.215.009 2.004 2.004 0 00-.848 2.046 2 2 0 003.928-.016zM121 265.72a2.003 2.003 0 00-.874-2.033 1.993 1.993 0 00-2.213.016 2.006 2.006 0 00-.842 2.047 1.996 1.996 0 002.35 1.573 2.013 2.013 0 001.286-.868c.145-.223.245-.473.293-.735zM149.11 298.56a1.997 1.997 0 00-.865-2.039 2.004 2.004 0 00-2.215.009 2.004 2.004 0 00-.848 2.046 2 2 0 003.928-.016zM112.65 313.12a1.997 1.997 0 00-.865-2.039 2.004 2.004 0 00-2.215.009 2.004 2.004 0 00-.848 2.046 2 2 0 003.928-.016zM57.77 327.16a2 2 0 10-3.93-.737 2 2 0 003.93.737zM46.56 284.56a2.001 2.001 0 10-3.937-.719 2.001 2.001 0 003.937.719zM13.68 294.64a2 2 0 10-3.933-.737 2 2 0 003.933.737zM145.74 371.74a2.003 2.003 0 00-.874-2.033 1.993 1.993 0 00-2.213.016 2.006 2.006 0 00-.842 2.047 1.996 1.996 0 002.35 1.573 1.996 1.996 0 001.286-.868c.145-.223.245-.473.293-.735zM154.21 390.05a2.005 2.005 0 00-.874-2.036 1.995 1.995 0 00-2.944.918 1.993 1.993 0 00.438 2.172 1.99 1.99 0 002.535.24 2 2 0 00.845-1.294zM289 263.81a2.002 2.002 0 00-1.983-2.359 2.006 2.006 0 00-1.834 1.238c-.15.364-.189.764-.112 1.15a1.995 1.995 0 001.559 1.571c.261.053.53.054.791.003a2.013 2.013 0 001.286-.868c.145-.223.245-.473.293-.735zM311.71 250.31a1.997 1.997 0 00-.865-2.039 2.004 2.004 0 00-2.215.009 2.004 2.004 0 00-.848 2.046 2 2 0 003.928-.016zM309.69 211.93a1.997 1.997 0 00-.865-2.039 2.004 2.004 0 00-2.215.009 2.004 2.004 0 00-.848 2.046 2.003 2.003 0 001.558 1.574 1.996 1.996 0 002.074-.858 1.99 1.99 0 00.296-.732zM377.11 250a1.994 1.994 0 00-.873-2.033 1.998 1.998 0 00-2.944.912 1.997 1.997 0 00.43 2.171 2.003 2.003 0 003.094-.315c.146-.223.245-.473.293-.735zM384.43 224a1.996 1.996 0 00-.865-2.039 1.996 1.996 0 00-2.215.009 2.004 2.004 0 00-.848 2.046 2 2 0 003.928-.016zM406 207.17a2.005 2.005 0 00-.874-2.036 1.998 1.998 0 00-2.944.918 2 2 0 001.458 2.718 1.99 1.99 0 001.515-.306 2 2 0 00.845-1.294zM395.47 384.21a1.995 1.995 0 00-.125-1.15 1.993 1.993 0 00-1.849-1.219 2.004 2.004 0 00-1.954 2.385 2 2 0 003.928-.016zM33.988 118.522a5.039 5.039 0 00-3.995-5.902 5.04 5.04 0 10-1.908 9.897 5.04 5.04 0 005.903-3.995zM115.75 164.71a5.004 5.004 0 00-2.184-5.085 5.005 5.005 0 00-7.359 2.285 5 5 0 003.623 6.8 5.054 5.054 0 005.92-4zM25.53 161.86a4.999 4.999 0 00-7.718-5.042 4.998 4.998 0 00-.745 7.669 4.999 4.999 0 008.463-2.627zM168.12 234.79a5.003 5.003 0 00-2.184-5.085 5.005 5.005 0 00-7.359 2.284 5.005 5.005 0 001.079 5.428 5.001 5.001 0 008.464-2.627zM146.69 268.32a5.003 5.003 0 00-2.184-5.085 5.005 5.005 0 00-7.359 2.284 5 5 0 003.623 6.801 5.063 5.063 0 005.92-4zM127.48 289.67a5.004 5.004 0 00-2.184-5.085 5.005 5.005 0 00-7.359 2.285 5 5 0 109.543 2.8zM146 323.16a5.003 5.003 0 00-2.184-5.085 5.005 5.005 0 00-7.359 2.285 5 5 0 109.543 2.8zM140.58 362.11a4.994 4.994 0 00-2.184-5.087 5 5 0 102.184 5.087zM216.07 284.63a5.002 5.002 0 00-7.721-5.042 5.003 5.003 0 001.811 9.042 5.007 5.007 0 003.794-.76 4.995 4.995 0 002.116-3.24zM174.561 323.541a5.04 5.04 0 10-9.38-3.692 5.04 5.04 0 009.38 3.692zM213.57 343a5.002 5.002 0 00-7.721-5.042A5 5 0 10213.57 343zM232.33 267.7a5.004 5.004 0 00-2.184-5.085 5.005 5.005 0 00-7.359 2.285 5 5 0 003.623 6.8 5.054 5.054 0 005.92-4zM176.84 252.2a4.998 4.998 0 00-9.543-2.8 5.001 5.001 0 109.543 2.8zM207.6 82.64a5.004 5.004 0 00-2.184-5.085 4.999 4.999 0 102.184 5.085zM356.74 168.94a5.002 5.002 0 00-4.96-5.901 5.003 5.003 0 00-4.861 5.982 5.001 5.001 0 003.911 3.919 5.053 5.053 0 005.91-4zM210.478 191.554a5.04 5.04 0 10-5.579-8.397 5.04 5.04 0 005.579 8.397zM299.41 374.34a5.003 5.003 0 00-2.184-5.085 5.005 5.005 0 00-7.359 2.285 5.001 5.001 0 003.623 6.8 5.048 5.048 0 005.176-2.175 5.06 5.06 0 00.744-1.825zM331.06 426.64a5.004 5.004 0 00-2.184-5.085 5.005 5.005 0 00-7.359 2.285 5 5 0 109.543 2.8zM370.37 335a4.999 4.999 0 00-9.919-.734 5.006 5.006 0 002.201 5.08 5.011 5.011 0 004.708.392 4.99 4.99 0 002.679-2.793c.238-.62.351-1.281.331-1.945zM483.61 314.36a5.006 5.006 0 00-3.205-4.517 4.996 4.996 0 00-5.405 1.21 5.002 5.002 0 00.9 7.657 4.998 4.998 0 007.71-4.35zM448.83 352.56a5.006 5.006 0 00-3.205-4.517 5.004 5.004 0 00-5.405 1.21 5.002 5.002 0 00.9 7.658 5.005 5.005 0 004.707.384 4.989 4.989 0 002.673-2.792c.238-.619.35-1.28.33-1.943zM455.36 232.255a5.04 5.04 0 10-7.277-6.974 5.04 5.04 0 007.277 6.974zM381.08 306.63a5.002 5.002 0 00-6.086-4.73 5.002 5.002 0 00-1.632 9.076 5.003 5.003 0 007.387-2.4 5.015 5.015 0 00.331-1.946zM306.61 235.82a4.998 4.998 0 00-9.543-2.801 5.005 5.005 0 001.079 5.428 5.001 5.001 0 008.464-2.627zM362.59 235a4.998 4.998 0 00-9.543-2.8 5.001 5.001 0 109.543 2.8zM362.59 185.35a4.998 4.998 0 00-9.543-2.8 5.001 5.001 0 003.623 6.8 5.063 5.063 0 005.92-4zM380.73 204.8a5.003 5.003 0 00-2.184-5.085 5.005 5.005 0 00-7.359 2.284 5.005 5.005 0 003.623 6.801 5.048 5.048 0 005.176-2.175 5.06 5.06 0 00.744-1.825zM246.136 79.04a7.72 7.72 0 10-13.526-7.447 7.72 7.72 0 0013.526 7.447zM210.23 165.22a7.725 7.725 0 00-3.312-7.911 7.714 7.714 0 00-8.577.031 7.72 7.72 0 002.829 13.98 7.741 7.741 0 009.06-6.1zM149.14 196.28a7.72 7.72 0 100-15.44 7.72 7.72 0 000 15.44zM223.1 223.62a7.72 7.72 0 007.72-7.72 7.72 7.72 0 00-7.72-7.72 7.72 7.72 0 00-7.72 7.72 7.72 7.72 0 007.72 7.72zM283.569 232.736a7.72 7.72 0 10-14.305-5.813 7.72 7.72 0 0014.305 5.813zM253.12 273.67a7.72 7.72 0 007.72-7.72 7.72 7.72 0 10-7.72 7.72zM188.12 246.59a7.72 7.72 0 007.72-7.72 7.72 7.72 0 10-7.72 7.72zM41.02 313.72a7.72 7.72 0 100-15.44 7.72 7.72 0 000 15.44zM44.152 348.875a7.72 7.72 0 10-7.142-13.689 7.72 7.72 0 107.142 13.689zM185.2 308.66a7.72 7.72 0 007.72-7.72 7.72 7.72 0 00-7.72-7.72 7.72 7.72 0 00-7.72 7.72 7.72 7.72 0 007.72 7.72zM241.457 314.523a7.72 7.72 0 10-6.009-14.222 7.72 7.72 0 006.009 14.222zM239.433 384.043a7.72 7.72 0 10-6.009-14.222 7.72 7.72 0 006.009 14.222zM190.15 404.81a7.715 7.715 0 00-3.313-7.914 7.722 7.722 0 00-11.829 7.974 7.715 7.715 0 006.092 6.04 7.722 7.722 0 009.05-6.1zM339.87 338.47a7.716 7.716 0 00-3.312-7.911 7.723 7.723 0 00-8.577.031 7.714 7.714 0 00-3.255 7.935 7.721 7.721 0 0011.878 4.872 7.706 7.706 0 002.123-2.139 7.708 7.708 0 001.143-2.788zM331.22 315.94a7.723 7.723 0 00-7.614-9.187 7.72 7.72 0 107.614 9.187zM270.51 297.77a7.72 7.72 0 100-15.44 7.72 7.72 0 000 15.44zM368 290.76a7.719 7.719 0 00-15.32-1.174A7.722 7.722 0 00363.385 298a7.712 7.712 0 004.615-7.24zM383.26 414.2a7.72 7.72 0 100-15.44 7.72 7.72 0 000 15.44zM348.71 379.9a7.734 7.734 0 00-7.611-9.218 7.734 7.734 0 00-7.127 4.799 7.73 7.73 0 1014.738 4.419zM307.59 400.23a7.734 7.734 0 00-7.611-9.218 7.726 7.726 0 00-7.127 4.798 7.735 7.735 0 001.71 8.421 7.738 7.738 0 003.968 2.099 7.733 7.733 0 009.06-6.1zM409.69 352.5a7.726 7.726 0 00-4.922-7.024 7.719 7.719 0 00-9.862 10.305 7.72 7.72 0 007.234 4.609 7.732 7.732 0 007.55-7.89zM413.44 284.67a7.728 7.728 0 00-1.39-4.261 7.717 7.717 0 00-11.899-.922 7.714 7.714 0 00-1.499 8.445 7.718 7.718 0 0010.17 3.97 7.72 7.72 0 004.618-7.232zM438.907 262.718a7.72 7.72 0 00-.233-10.915 7.72 7.72 0 10.233 10.915zM433.115 328.97a7.721 7.721 0 10-7.422-13.542 7.721 7.721 0 007.422 13.542zM181.26 151.22a11.588 11.588 0 00-11.414-13.816 11.588 11.588 0 00-11.319 13.894 11.595 11.595 0 009.143 9.072 11.591 11.591 0 0013.59-9.15z"/></g></g><defs><clipPath id="clip0"><path fill="#fff" d="M0 0h555.03v478.42H0z"/></clipPath></defs></svg>