<svg width="200" height="140" fill="none" xmlns="http://www.w3.org/2000/svg"><g clip-path="url(#clip0)"><path d="M43.667 58.592h.266c2.788 0 5.322.988 7.603 2.966a2.195 2.195 0 01.95 1.678 1.7 1.7 0 01-.92 1.515c-.231.131-.493.201-.76.205h-.09a2.036 2.036 0 01-1.544-.841 8 8 0 00-5.208-2.02h-.328c-1.93.022-3.784.752-5.208 2.05a8.912 8.912 0 00-1.422 1.63 8.022 8.022 0 00-1.262 4.19v.31a7.737 7.737 0 001.52 4.546v.03a2.05 2.05 0 00-.421-.045 2.228 2.228 0 00-1.52.621c-.41.393-.651.927-.678 1.493v.216a11.245 11.245 0 01-2.387-6.899v-.265a11.318 11.318 0 012.604-7.16 12.106 12.106 0 011.715-1.694 11.342 11.342 0 017.09-2.526zm-6.908 16.703h.232c.468 0 .97.287 1.498.867a8.046 8.046 0 005.254 1.978h.171c2.078 0 3.96-.8 5.646-2.398a1.672 1.672 0 011.17-.448c.799 0 1.365.431 1.7 1.292.025.125.04.252.045.38v.14c0 .56-.311 1.083-.935 1.568a11.606 11.606 0 01-15.108.345c-.802-.656-1.231-1.164-1.296-1.516a2.984 2.984 0 01-.046-.5 1.682 1.682 0 01.844-1.459c.245-.16.532-.247.825-.25zM58.417 60.24v19.767a1.666 1.666 0 01-1.034 1.515c-.219.106-.46.159-.703.156h-.019a1.741 1.741 0 01-1.673-1.197 1.69 1.69 0 01-.08-.481V60.255a1.685 1.685 0 011.02-1.516c.21-.099.44-.152.672-.155h.133a1.699 1.699 0 011.521.977c.108.21.164.443.163.678zm13.306 0v.14c0 .712-.406 1.253-1.216 1.613-.24.055-.484.081-.73.08H58.942a.042.042 0 01-.045-.045v-1.72a2.266 2.266 0 00-.825-1.724h11.967c.707 0 1.24.379 1.605 1.182.046.159.071.323.076.489l.004-.016zm0 1.458v18.245a1.727 1.727 0 01-1.102 1.583 2.052 2.052 0 01-.608.11h-.046c-.76 0-1.334-.417-1.676-1.242a2.643 2.643 0 01-.076-.701V62.58a.041.041 0 01.027-.044.043.043 0 01.018-.002h1.753a2.207 2.207 0 001.691-.826l.02-.011zM75.795 58.592h.14c.715 0 1.252.405 1.617 1.212.051.24.077.485.076.731v17.108a.041.041 0 01-.028.043.041.041 0 01-.018.003h-1.726a2.287 2.287 0 00-1.722.822V60.27c0-.705.38-1.239 1.178-1.599.157-.046.32-.073.483-.08zm0 19.578h13.473a1.677 1.677 0 011.521 1.026c.106.218.16.456.156.698a1.724 1.724 0 01-1.684 1.742H75.803a1.71 1.71 0 01-1.52-1.011 1.62 1.62 0 01-.157-.667v-.14a1.675 1.675 0 01.985-1.493c.21-.106.442-.159.677-.155h.007zm1.483-19.578h11.96c.684 0 1.214.367 1.59 1.102.07.197.112.404.12.614v.049c0 .758-.417 1.333-1.246 1.674-.23.058-.467.085-.703.08H78.14a.043.043 0 01-.034-.012.041.041 0 01-.012-.033v-1.758a2.202 2.202 0 00-.825-1.694l.008-.022zm.87 9.774h11.025c.852 0 1.434.45 1.745 1.352.02.133.032.267.035.402 0 .84-.453 1.409-1.358 1.712a2.18 2.18 0 01-.406.045H78.164a.041.041 0 01-.034-.012.042.042 0 01-.012-.033v-3.41a.041.041 0 01.008-.047.041.041 0 01.015-.01h.007zM104.977 58.592h.141a1.678 1.678 0 011.52.977c.112.211.171.447.171.686v.17c0 .538-.327 1.077-.98 1.618l-8.984 8.978v8.952c0 .682-.38 1.205-1.14 1.569a1.953 1.953 0 01-.673.11c-.715 0-1.255-.38-1.62-1.137a1.682 1.682 0 01-.095-.557V70.26a2.055 2.055 0 01.905-1.584c6.496-6.498 9.76-9.746 9.793-9.744.275-.214.613-.334.962-.34zm-9.964 0h.14c.667 0 1.186.362 1.56 1.087.07.169.112.348.125.53v5.171l-3.494 3.497V60.27a1.69 1.69 0 011.015-1.516c.204-.099.427-.154.654-.162zm3.041 12.013c.156 0 .4.189.734.572 5.102 5.066 7.679 7.64 7.732 7.724.164.256.261.55.282.852v.254c0 .664-.369 1.182-1.107 1.553-.215.074-.441.111-.669.11-.593 0-1.176-.352-1.748-1.057-3.802-3.763-5.736-5.695-5.802-5.796a.994.994 0 01-.17-.511v-2.72a1.166 1.166 0 01.623-.932l.125-.05zM110.889 58.592h9.907a1.68 1.68 0 011.52.916c.147.256.222.547.217.841v8.373a2.231 2.231 0 00-1.642-.807h-.186a2.235 2.235 0 00-1.647.807v-6.619h-7.907c-1.014 0-1.648-.45-1.901-1.352a1.95 1.95 0 01-.03-.341v-.14c0-.705.394-1.238 1.182-1.599.158-.047.322-.073.487-.08zm9.884 9.773a1.704 1.704 0 011.601 1.088c.093.21.14.437.136.666v9.775c.011.37-.1.735-.315 1.037a1.723 1.723 0 01-1.361.72h-.152c-.674 0-1.193-.367-1.555-1.102a1.988 1.988 0 01-.122-.716v-9.698a1.727 1.727 0 011.141-1.645c.202-.08.417-.122.635-.124h-.008zm1.41-9.773h8.467a1.7 1.7 0 011.52 1.011c.101.208.154.436.156.667v.155a1.624 1.624 0 01-.574 1.212 1.862 1.862 0 01-1.372.466h-7.345a.043.043 0 01-.034-.012.043.043 0 01-.009-.015.055.055 0 01-.003-.018v-1.834a2.189 2.189 0 00-.798-1.617l-.008-.015zM140.451 58.592h.935a1.768 1.768 0 011.699 1.011c.119.235.179.495.175.758 0 .795-.43 1.36-1.281 1.693a2.1 2.1 0 01-.483.06h-5.068a1.71 1.71 0 01-1.52-1.01 1.621 1.621 0 01-.156-.668v-.14a1.705 1.705 0 011.045-1.538c.161-.063.328-.11.498-.14a300.68 300.68 0 014.156-.026zm-5.703 3.17a2.36 2.36 0 001.859.819h1.616c.009.004.016.01.021.018a.044.044 0 01.009.027v17.381a1.678 1.678 0 01-1.019 1.516c-.205.1-.429.152-.657.155h-.141c-.712 0-1.249-.394-1.612-1.182a1.987 1.987 0 01-.08-.496l.004-18.238zm4.022 6.79h2.741c.778 0 1.34.408 1.684 1.227.054.187.081.38.08.575 0 .695-.38 1.228-1.14 1.6-.246.079-.503.116-.761.109h-2.589c-.03 0-.045 0-.045-.03v-3.436c0-.03.009-.046.026-.046h.004zm4.334-9.76h.031a6.42 6.42 0 013.064 1.713c.268.223.51.477.718.757a6.615 6.615 0 011.346 3.868v.356c0 1.677-.678 3.227-2.034 4.649a7.415 7.415 0 01-2.471 1.538c-.198.06-.414.121-.654.185.369-.4.583-.919.605-1.462v-.17a2.227 2.227 0 00-1.107-1.864 3.09 3.09 0 001.358-.932c.291-.33.511-.717.645-1.136.133-.418.178-.86.132-1.297a3.174 3.174 0 00-1.275-2.215 3.56 3.56 0 00-.844-.482 2.179 2.179 0 001.106-1.833v-.186a2.299 2.299 0 00-.62-1.489zM184.026 58.591h.095a2.113 2.113 0 011.627.932l4.942 4.925c-1.026 1.027-1.543 1.576-1.543 1.648a2 2 0 00-.327 1.057v.341c-4.167-4.104-6.25-6.18-6.25-6.228a1.878 1.878 0 01-.236-.856v-.14a1.686 1.686 0 011.019-1.516c.21-.101.439-.157.673-.163zm-1.692 3.156l3.494 3.497v14.68a1.697 1.697 0 01-1.205 1.648 1.23 1.23 0 01-.407.08h-.285a1.678 1.678 0 01-1.346-.811 1.578 1.578 0 01-.266-.868l.015-18.226zm13.393-1.648v4.925c-2.44 2.478-3.697 3.715-3.771 3.713-.247.16-.533.252-.829.265h-.186c-.707 0-1.247-.394-1.619-1.182a2.98 2.98 0 01-.065-.557 2.146 2.146 0 01.935-1.648 989.52 989.52 0 015.535-5.516zm2.202-1.515h.091c.73 0 1.271.394 1.623 1.182.042.135.067.275.076.417V80.04a1.637 1.637 0 01-.87 1.368c-.232.15-.503.232-.78.235h-.205a1.682 1.682 0 01-1.433-.887 1.76 1.76 0 01-.221-.871V60.349a1.721 1.721 0 011.171-1.663c.175-.067.361-.1.548-.095v-.007z" fill="#1D1D1B"/><path d="M0 35.713v34.763l22.924-21.572L0 35.715z" fill="#D31216"/><path d="M22.924 48.904L0 70.477h22.924V48.904z" fill="#E73231"/><path d="M0 70.476l22.924 21.57v-21.57H0z" fill="#B71918"/><path d="M0 105.242l22.924-13.195L0 70.476v34.766z" fill="#515151"/><path d="M0 35.713l22.924 13.191 7.288-30.572L0 35.713z" fill="#BF1826"/><path d="M30.212 18.332l30.212 8.998V.95L30.212 18.332z" fill="#ED6869"/><path d="M60.424.951V27.33l30.87-8.615L60.424.951z" fill="#E83E3F"/><path d="M22.924 48.904l18.75-10.789-11.462-19.783-7.288 30.572z" fill="#E84342"/><path d="M30.212 18.332l11.462 19.783 18.75-10.785-30.212-8.998z" fill="#E73231"/><path d="M60.424 140l30.87-17.76-30.87-8.618V140z" fill="#5A5B5C"/><path d="M120.845 105.242L97.92 92.047l-6.626 30.193 29.551-16.998z" fill="#ABAEAF"/><path d="M79.17 102.832l12.124 19.408 6.626-30.193-18.75 10.785z" fill="#5D6061"/><path d="M60.424 113.621l30.87 8.619-12.124-19.408-18.746 10.789z" fill="#333"/><path d="M60.424 113.622l-30.212 8.997L60.424 140v-26.378z" fill="#A9A9A9"/><path d="M0 105.242l30.212 17.377-7.288-30.572L0 105.242z" fill="#353535"/><path d="M22.924 92.047l7.288 30.572 11.462-19.787-18.75-10.785z" fill="#5F6160"/><path d="M41.674 102.832l-11.462 19.787 30.212-8.998-18.75-10.789z" fill="#575656"/><path d="M178.426 78.12l-16.682-15.668-14.849 15.699 31.531-.03z" fill="#A9A9A9"/><path d="M91.294 18.715l-30.87 8.615L79.17 38.115l12.124-19.4z" fill="#EA5C5C"/><path d="M91.294 18.715l-12.124 19.4 18.75 10.79-6.626-30.19z" fill="#B71918"/></g><defs><clipPath id="clip0"><path fill="#fff" d="M0 0h200v140H0z"/></clipPath></defs></svg>