<svg width="24" height="24" fill="none" xmlns="http://www.w3.org/2000/svg"><path fill-rule="evenodd" clip-rule="evenodd" d="M0 12C0 5.373 5.373 0 12 0s12 5.373 12 12-5.373 12-12 12S0 18.627 0 12z" fill="#0077B5"/><path fill-rule="evenodd" clip-rule="evenodd" d="M8.66 7.411C8.641 6.611 8.068 6 7.137 6 6.208 6 5.6 6.61 5.6 7.411c0 .785.59 1.413 1.503 1.413h.018c.948 0 1.538-.628 1.538-1.413zM8.48 9.94H5.76v8.17h2.72V9.94zm6.677-.192c1.79 0 3.13 1.168 3.13 3.678v4.685h-2.719v-4.372c0-1.098-.393-1.847-1.378-1.847-.751 0-1.199.505-1.395.993-.072.175-.09.418-.09.663v4.563h-2.72s.036-7.404 0-8.17h2.72v1.157c.361-.557 1.008-1.35 2.452-1.35z" fill="#fff"/></svg>