<svg width="92" height="64" fill="none" xmlns="http://www.w3.org/2000/svg"><path d="M20.087 26.785h.122c1.283 0 2.448.452 3.498 1.356a1.007 1.007 0 01.437.767.773.773 0 01-.423.693.737.737 0 01-.35.093h-.042a.94.94 0 01-.71-.384 3.693 3.693 0 00-2.396-.923h-.15c-.888.01-1.741.343-2.396.936a4.08 4.08 0 00-.654.745 3.651 3.651 0 00-.58 1.916v.142c.005.748.25 1.476.699 2.078v.014a.945.945 0 00-.194-.021 1.028 1.028 0 00-.7.284c-.188.18-.299.424-.311.682v.099a5.12 5.12 0 01-1.098-3.154v-.12a5.154 5.154 0 011.198-3.274c.236-.284.5-.543.788-.774a5.238 5.238 0 013.262-1.155zm-3.178 7.635h.107c.215 0 .446.132.689.397.67.58 1.528.9 2.417.904h.079c.956 0 1.821-.365 2.596-1.096a.772.772 0 01.539-.205c.367 0 .628.197.782.59.011.058.018.116.02.174v.064c0 .256-.143.495-.43.717a5.356 5.356 0 01-3.445 1.356 5.36 5.36 0 01-3.504-1.198c-.37-.3-.567-.532-.596-.693a1.36 1.36 0 01-.021-.229.766.766 0 01.388-.666.704.704 0 01.38-.115zM26.872 27.538v9.037a.759.759 0 01-.476.692.733.733 0 01-.323.071h-.009a.805.805 0 01-.77-.547.768.768 0 01-.036-.22v-9.026a.767.767 0 01.469-.693.759.759 0 01.31-.07h.06a.785.785 0 01.7.446c.05.096.075.202.075.31zm6.12 0v.064c0 .326-.186.573-.559.738-.11.025-.223.037-.336.036h-4.992a.02.02 0 01-.007-.005.017.017 0 01-.005-.007.018.018 0 010-.009v-.786a1.03 1.03 0 00-.38-.788h5.505c.325 0 .57.173.738.54a.89.89 0 01.035.224l.002-.007zm0 .667v8.34a.787.787 0 01-.786.774h-.021c-.35 0-.614-.19-.771-.568a1.197 1.197 0 01-.035-.32v-7.823a.019.019 0 01.012-.02.02.02 0 01.009 0h.806a1.02 1.02 0 00.778-.378l.009-.005zM34.866 26.785h.065c.328 0 .575.185.743.554.023.11.035.222.035.334v7.821a.02.02 0 01-.001.008.02.02 0 01-.005.007.02.02 0 01-.007.005.02.02 0 01-.008 0h-.794a1.058 1.058 0 00-.792.377v-8.34c0-.321.175-.565.542-.73a.923.923 0 01.222-.036zm0 8.95h6.197a.774.774 0 01.7.47.785.785 0 01-.48 1.079.79.79 0 01-.223.035h-6.19a.791.791 0 01-.772-.767v-.064a.762.762 0 01.453-.682.672.672 0 01.311-.071h.004zm.682-8.95h5.502c.314 0 .558.168.73.504.033.09.052.184.056.28v.023c0 .346-.192.61-.573.765a1.224 1.224 0 01-.324.037h-4.994c-.003 0-.006 0-.008-.002a.018.018 0 01-.008-.004.017.017 0 01-.004-.007.018.018 0 01-.001-.008v-.804a1 1 0 00-.38-.774l.004-.01zm.4 4.468h5.072c.391 0 .66.206.802.618.01.06.015.122.016.184 0 .384-.208.644-.624.782-.062.013-.124.02-.187.021h-5.072a.02.02 0 01-.015-.005.018.018 0 01-.005-.007.018.018 0 010-.009V31.28a.02.02 0 01-.003-.008c0-.002 0-.005.002-.008a.02.02 0 01.011-.01h.003zM48.29 26.785h.064a.775.775 0 01.7.447.666.666 0 01.078.313v.078c0 .246-.15.492-.45.74l-4.133 4.104v4.092c0 .312-.175.55-.525.717a.905.905 0 01-.31.05c-.328 0-.576-.173-.744-.52a.765.765 0 01-.044-.254V32.12a.936.936 0 01.416-.724c2.988-2.97 4.49-4.456 4.505-4.454a.745.745 0 01.442-.156zm-4.584 0h.065c.306 0 .545.165.717.497.032.077.051.159.057.242v2.364l-1.607 1.599v-3.935a.77.77 0 01.467-.693.756.756 0 01.3-.074zm1.399 5.491c.072 0 .184.087.337.262 2.347 2.316 3.533 3.493 3.557 3.531.076.117.12.251.13.39v.116c0 .303-.17.54-.51.71a.946.946 0 01-.307.05c-.273 0-.54-.161-.804-.483-1.75-1.72-2.639-2.604-2.669-2.65a.452.452 0 01-.079-.234v-1.243a.53.53 0 01.287-.426l.058-.023zM51.009 26.785h4.557a.777.777 0 01.7.419c.067.117.101.25.1.384v3.828a1.026 1.026 0 00-.756-.37h-.086a1.037 1.037 0 00-.757.37V28.39h-3.638c-.466 0-.757-.206-.874-.618a.916.916 0 01-.014-.156v-.064c0-.322.181-.566.544-.731a.923.923 0 01.224-.036zm4.547 4.468a.788.788 0 01.736.497c.043.096.064.2.063.305v4.468a.778.778 0 01-.55.767.772.772 0 01-.221.036h-.07c-.31 0-.549-.168-.716-.504a.905.905 0 01-.056-.327v-4.433a.787.787 0 01.525-.752.816.816 0 01.292-.057h-.003zm.648-4.468H60.1a.788.788 0 01.771.767v.07a.742.742 0 01-.264.555.86.86 0 01-.631.213h-3.379l-.008-.001a.018.018 0 01-.007-.005.02.02 0 01-.006-.015v-.838a.999.999 0 00-.367-.74l-.004-.006zM64.607 26.785h.43a.818.818 0 01.863.808c0 .364-.198.622-.59.774a.966.966 0 01-.222.028h-2.33a.79.79 0 01-.772-.767v-.064a.775.775 0 01.48-.703c.075-.029.151-.05.23-.064.773-.01 1.41-.014 1.911-.012zm-2.623 1.45a1.087 1.087 0 00.855.373h.744a.024.024 0 01.014.021v7.946a.765.765 0 01-.47.692.715.715 0 01-.302.071h-.064c-.328 0-.575-.18-.742-.54a.896.896 0 01-.037-.227l.002-8.337zm1.85 3.103h1.261c.358 0 .616.187.775.56a.946.946 0 01.037.264c0 .318-.175.561-.525.73a1.047 1.047 0 01-.35.051h-1.19c-.015 0-.022 0-.022-.014v-1.57c0-.014.004-.021.013-.021h.001zm1.994-4.462h.014a2.957 2.957 0 011.41.783c.123.102.234.219.33.347.39.51.606 1.128.619 1.768v.163c0 .766-.312 1.474-.936 2.125a3.418 3.418 0 01-1.136.703c-.091.027-.19.055-.301.084.17-.183.268-.42.278-.668v-.078a1.01 1.01 0 00-.509-.852c.243-.083.46-.23.624-.426a1.447 1.447 0 00.358-1.112 1.438 1.438 0 00-.587-1.013 1.635 1.635 0 00-.388-.22.997.997 0 00.509-.838v-.085a1.048 1.048 0 00-.285-.68zM84.652 26.785h.044a.976.976 0 01.748.426l2.273 2.251c-.472.47-.71.72-.71.753a.914.914 0 00-.15.483v.156c-1.916-1.876-2.875-2.825-2.875-2.847a.86.86 0 01-.108-.391v-.064a.768.768 0 01.468-.693.756.756 0 01.31-.074zm-.778 1.442l1.607 1.599v6.71a.773.773 0 01-.554.754.568.568 0 01-.188.036h-.13a.778.778 0 01-.62-.37.72.72 0 01-.122-.397l.007-8.332zm6.16-.753v2.251c-1.122 1.133-1.7 1.699-1.734 1.697a.762.762 0 01-.381.122h-.086c-.325 0-.574-.18-.745-.54a1.37 1.37 0 01-.03-.255.976.976 0 01.43-.754c.81-.809 1.66-1.65 2.547-2.521zm1.013-.693h.042c.336 0 .585.18.747.54.019.062.03.126.035.191v9.078a.741.741 0 01-.4.625.674.674 0 01-.36.108h-.094a.779.779 0 01-.659-.405.8.8 0 01-.101-.399v-8.93a.783.783 0 01.538-.761.66.66 0 01.252-.043v-.004z" fill="#1D1D1B"/><path d="M0 16.326v15.892l10.545-9.862L0 16.326z" fill="#D31216"/><path d="M10.545 22.356L0 32.217h10.545v-9.86z" fill="#E73231"/><path d="M0 32.217l10.545 9.861v-9.86H0z" fill="#B71918"/><path d="M0 48.11l10.545-6.032L0 32.218V48.11z" fill="#515151"/><path d="M0 16.326l10.545 6.03L13.898 8.38 0 16.326z" fill="#BF1826"/><path d="M13.898 8.38l13.897 4.114V.434L13.898 8.38z" fill="#ED6869"/><path d="M27.795.435v12.059l14.2-3.939-14.2-8.12z" fill="#E83E3F"/><path d="M10.545 22.356l8.625-4.932-5.272-9.044-3.353 13.976z" fill="#E84342"/><path d="M13.898 8.38l5.272 9.044 8.625-4.93L13.898 8.38z" fill="#E73231"/><path d="M27.795 64l14.2-8.119-14.2-3.94V64z" fill="#5A5B5C"/><path d="M55.589 48.11l-10.546-6.032-3.048 13.803 13.594-7.77z" fill="#ABAEAF"/><path d="M36.418 47.009l5.577 8.872 3.048-13.803-8.625 4.931z" fill="#5D6061"/><path d="M27.795 51.941l14.2 3.94-5.577-8.872-8.623 4.932z" fill="#333"/><path d="M27.795 51.941l-13.897 4.113L27.795 64V51.941z" fill="#A9A9A9"/><path d="M0 48.11l13.898 7.944-3.353-13.976L0 48.11z" fill="#353535"/><path d="M10.545 42.078l3.353 13.976 5.272-9.045-8.625-4.93z" fill="#5F6160"/><path d="M19.17 47.009l-5.272 9.045 13.897-4.113-8.625-4.932z" fill="#575656"/><path d="M82.076 35.712l-7.674-7.163-6.83 7.177 14.504-.014z" fill="#A9A9A9"/><path d="M41.995 8.555l-14.2 3.939 8.623 4.93 5.577-8.869z" fill="#EA5C5C"/><path d="M41.995 8.555l-5.577 8.87 8.625 4.931-3.048-13.8z" fill="#B71918"/></svg>