<svg width="24" height="24" fill="none" xmlns="http://www.w3.org/2000/svg"><path fill-rule="evenodd" clip-rule="evenodd" d="M0 12C0 5.373 5.373 0 12 0s12 5.373 12 12-5.373 12-12 12S0 18.627 0 12z" fill="#D83933"/><path fill-rule="evenodd" clip-rule="evenodd" d="M18.133 9.037A1.625 1.625 0 0017 7.875C16.003 7.6 12 7.6 12 7.6s-4.003 0-5 .275c-.552.15-.985.596-1.133 1.162C5.6 10.062 5.6 12.2 5.6 12.2s0 2.139.267 3.164c.148.565.581 1.01 1.132 1.162C7.997 16.8 12 16.8 12 16.8s4.003 0 5-.274c.552-.152.985-.597 1.133-1.162.267-1.026.267-3.164.267-3.164s0-2.138-.267-3.163z" fill="#fff"/><path fill-rule="evenodd" clip-rule="evenodd" d="M10.8 14.4v-4l3.2 2-3.2 2z" fill="red"/></svg>